<?xml version="1.0" standalone="no"?><!DOCTYPE svg PUBLIC "-//W3C//DTD SVG 1.1//EN" "http://www.w3.org/Graphics/SVG/1.1/DTD/svg11.dtd"><svg t="1733394448175" class="icon" viewBox="0 0 1024 1024" version="1.1" xmlns="http://www.w3.org/2000/svg" p-id="5960" xmlns:xlink="http://www.w3.org/1999/xlink" width="200" height="200"><path d="M314.8003552 680.25457814c0 126.7484448-57.43502186 235.2924448-169.2103104 322.67377706a45.51111147 45.51111147 0 1 1-56.0696896-71.68c90.52159999-70.76977813 134.25777813-153.4179552 134.25777813-250.99377707 0-55.25048853-16.1564448-93.7984-58.11768853-152.1436448l-34.13333333-46.0572448c-40.41386667-55.9331552-59.48302187-98.75911147-59.48302294-153.55448854 0-99.39626667 56.5248-200.56746667 165.8424896-304.60586666a45.51111147 45.51111147 0 1 1 62.75982186 65.99111147c-92.93368853 88.38257813-137.58008853 168.30008853-137.58008852 238.6147552 0 31.40266667 12.01493333 58.3907552 42.2343104 100.21546667l34.1788448 46.19377813c49.28853333 68.44871146 72.4992 120.51342187 75.09333332 191.7383104l0.22755521 13.60782294z m303.37706667-1e-8c0 126.7484448-57.38951147 235.2924448-169.1648 322.67377706a45.51111147 45.51111147 0 1 1-56.06968854-71.67999999c90.52159999-70.76977813 134.25777813-153.4179552 134.25777814-250.99377707 0-55.25048853-16.1564448-93.7984-58.1632-152.1436448l-34.08782294-46.0572448C394.58133333 426.12053333 375.46666667 383.29457813 375.46666667 328.4992c0-99.39626667 56.5248-200.56746667 165.84248853-304.60586667a45.51111147 45.51111147 0 0 1 62.75982293 65.99111147C511.08977813 178.26702187 466.48888853 258.18453333 466.48888852 328.4992c0 29.03608853 10.24 54.2492448 35.58968961 90.84017813l8.73813334 12.24248854 23.93884373 32.13084481 8.1464896 11.19573332c49.24302187 68.44871147 72.4992 120.51342187 75.09333333 191.7383104l0.18204374 13.60782293z m303.42257813 1e-8c0 126.7484448-57.43502186 235.2924448-169.1648 322.67377706a45.51111147 45.51111147 0 1 1-56.06968853-71.68C786.8416 860.47857813 830.57777813 777.8304 830.57777813 680.25457813c0-55.25048853-16.1564448-93.7984-58.1176896-152.1436448l-34.13333333-46.0572448c-40.3683552-55.9331552-59.43751147-98.75911147-59.4375104-153.55448853 0-99.39626667 56.5248-200.56746667 165.84248854-304.60586667a45.51111147 45.51111147 0 1 1 62.71431146 65.99111146c-92.93368853 88.38257813-137.53457813 168.30008853-137.53457813 238.61475521 0 29.03608853 10.24 54.2492448 35.54417813 90.84017813l11.19573333 15.51928854 21.5267552 28.8995552 8.10097814 11.15022293c49.28853333 68.44871146 72.4992 120.51342187 75.09333332 191.7383104L921.6 680.25457814z" p-id="5961" fill="#2563eb"></path></svg>